<?xml version="1.0" encoding="UTF-8"?>
<svg width="50px" height="50px" viewBox="0 0 50 50" version="1.1" xmlns="http://www.w3.org/2000/svg" xmlns:xlink="http://www.w3.org/1999/xlink">
    <!-- Generator: Sketch 52.6 (67491) - http://www.bohemiancoding.com/sketch -->
    <title>rtb-3</title>
    <desc>Created with Sketch.</desc>
    <defs>
        <polygon id="path-1" points="5.78310434e-05 0.163530303 42.9543939 0.163530303 42.9543939 44.9545289 5.78310434e-05 44.9545289"></polygon>
    </defs>
    <g id="rtb-3" stroke="none" stroke-width="1" fill="none" fill-rule="evenodd">
        <g id="Group-13" transform="translate(3.000000, 2.000000)">
            <g id="Group-12">
                <g id="Group-3" transform="translate(0.000000, 0.488180)">
                    <mask id="mask-2" fill="white">
                        <use xlink:href="#path-1"></use>
                    </mask>
                    <g id="Clip-2"></g>
                    <path d="M39.4225303,14.4663727 C39.6916061,14.6833273 39.947,14.8872515 40.1984848,15.0937818 C41.1581667,15.8814636 41.2832576,16.6215848 40.9268788,17.8073424 C40.5913485,18.9188273 40.1352879,19.9938273 39.8036667,21.1066152 C39.5678182,21.9008121 39.4635758,22.7360545 39.711803,23.5576152 C39.9821818,24.4508424 40.2968636,25.3303879 40.5737576,26.2223121 C40.7555303,26.8099788 40.936,27.4015545 41.0604394,28.002903 C41.238303,28.8700697 40.8389242,29.5359182 40.1763333,30.0369333 C39.472697,30.5692212 38.7377879,31.0611152 38.0009242,31.547797 C36.9187576,32.2631606 35.9916515,33.1088273 35.5101818,34.3532212 L34.9042727,36.3683576 C34.6469242,37.0609182 34.4410455,37.7756303 34.1465606,38.451903 C33.818197,39.2063576 33.1556061,39.5262515 32.3640152,39.5744636 C31.8584394,39.6044333 31.348303,39.5803273 30.8407727,39.5979182 L28.6575455,39.5692515 C27.7499848,39.5347212 26.8958485,39.7340848 26.1557273,40.2266303 C25.3022424,40.792797 24.5054394,41.4436606 23.6851818,42.0599939 C23.134,42.4737061 22.5802121,42.878297 21.8967727,43.0600697 C21.221803,43.2392364 20.6360909,42.9949182 20.1135758,42.6385394 C19.3597727,42.1231909 18.6457121,41.547903 17.9277424,40.9823879 C17.093803,40.3256606 16.2031818,39.7751303 15.1392576,39.6122515 C14.6095758,39.5314636 14.0636061,39.5412364 13.5254545,39.5418879 C12.6139848,39.5425394 11.7005606,39.5881455 10.7890909,39.5777212 C9.51407576,39.5633879 8.95312121,39.0043879 8.58501515,37.997797 C8.27424242,37.1495242 8.0494697,36.2693273 7.81427273,35.396297 C7.3660303,33.7284182 6.42524242,32.4462364 4.94630303,31.5380242 C4.20422727,31.0819636 3.49407576,30.5685697 2.79890909,30.042797 C2.5239697,29.8349636 2.30571212,29.550903 2.05813636,29.2759636 C2.05683333,29.2746606 2.05618182,29.2740091 2.0555303,29.2733576 C2.04184848,29.2583727 2.02816667,29.2440394 2.01513636,29.2290545 C1.78384848,28.9371758 1.83010606,28.2257212 1.83010606,28.2257212 C1.90959091,27.2647364 2.35848485,26.3206909 2.71486364,25.3505848 C3.10056061,24.2990394 3.46540909,23.2357667 3.32793939,22.0988727 C3.25366667,21.4910091 3.08362121,20.8883576 2.89793939,20.3026455 C2.60606061,19.381403 2.24121212,18.4842667 1.95128788,17.5630242 C1.64833333,16.5974788 1.9050303,15.7557212 2.70574242,15.1361303 C3.38527273,14.6097061 4.10780303,14.1380091 4.81860606,13.6519788 C5.65124242,13.0812515 6.50537879,12.5170394 6.99271212,11.6029636 C7.32824242,10.974903 7.57777273,10.2953727 7.81622727,9.62105455 C8.15436364,8.66267576 8.40454545,7.67172121 8.77265152,6.72637273 C9.03390909,6.05400909 9.58118182,5.62400909 10.3362879,5.59143333 C11.1500303,5.55755455 11.9663788,5.5471303 12.7801212,5.57188788 C13.9020303,5.60641818 15.0167727,5.63703939 16.0898182,5.23049394 C16.8208182,4.95425152 17.4371515,4.49623636 18.0508788,4.03040303 C18.7779697,3.47922121 19.4946364,2.9111 20.2490909,2.39966061 C21.1579545,1.78528182 22.0857121,1.9221 22.9378939,2.52670606 C23.7672727,3.11372121 24.5608182,3.75090303 25.3615303,4.37766061 C26.3798485,5.17381212 27.5362879,5.58491818 28.8217273,5.58491818 C29.8680606,5.58426667 30.9130909,5.50543333 31.9594242,5.50022121 C32.5053939,5.49761515 33.0559242,5.57775152 33.5230606,5.90546364 C34.076197,6.29311515 34.3257273,6.88664545 34.5211818,7.49646364 C34.8404242,8.49458485 35.1212273,9.50573636 35.4339545,10.5058121 C35.8053182,11.6948273 36.5747576,12.5782818 37.6035,13.2741 M38.4556818,13.7190848 C38.5892424,13.874797 38.7306212,14.0396303 38.9032727,14.1386606 M40.7568333,13.1985242 C40.7568333,13.1985242 38.9286818,12.0466455 38.5240909,11.7026455 C37.9318636,11.1996758 37.4015303,10.6732515 37.1539545,9.92400909 C36.9656667,9.35914545 36.8021364,8.78516061 36.6431667,8.21117576 C36.3890758,7.28993333 36.1434545,6.36673636 35.6359242,5.5425697 C35.1368636,4.73143333 34.443,4.17764545 33.5204545,3.90531212 C32.6506818,3.64796364 31.7652727,3.64991818 30.8733485,3.68053939 C30.1586364,3.70464545 29.4439242,3.72288788 28.7292121,3.73852424 C27.9682424,3.75481212 27.2861061,3.51375152 26.6834545,3.06094848 C25.8710152,2.44982727 25.0761667,1.81525152 24.2624242,1.20608485 C23.5959242,0.706372727 22.8551515,0.330448485 22.0296818,0.207312121 C21.0445909,0.0607212121 20.1025,0.282236364 19.2822424,0.838630303 C18.4170303,1.42564545 17.5980758,2.08172121 16.7634848,2.71303939 C16.1002424,3.21470606 15.416803,3.69031212 14.554197,3.72288788 C13.7990909,3.75155455 13.0407273,3.72940303 12.2849697,3.69552424 C11.3930455,3.6551303 10.5056818,3.63558485 9.62939394,3.84797879 C8.42474242,4.13920606 7.60969697,4.89496364 7.07415152,5.98690303 C6.53469697,7.08731212 6.32490909,8.29261515 5.9639697,9.44970606 C5.72421212,10.2165394 5.40171212,10.9338576 4.7384697,11.4355242 C4.33713636,11.7384788 3.93059091,12.0368727 3.51101515,12.3131152 C2.63277273,12.8897061 1.73172727,13.4350242 1.02222727,14.2272667 C0.253439394,15.0840091 -0.116621212,16.0821303 0.0325757576,17.2379182 C0.198712121,18.5285697 0.754454545,19.7006455 1.18640909,20.9105091 C1.49848485,21.7861455 1.65093939,22.6813273 1.36622727,23.5836758 C1.01636364,24.6906 0.573984848,25.7688576 0.246924242,26.882297 C0.0807878788,27.4471606 0.0423484848,28.0602364 0.0208484848,28.6544182 C-5.42101086e-20,28.9658424 0.272984848,29.7574333 0.272984848,29.7574333 C0.42869697,30.2076303 0.824166667,30.8011606 1.35189394,31.2096606 C2.18778788,31.8559636 3.06407576,32.4501455 3.92472727,33.0638727 C4.5019697,33.4762818 5.15348485,33.8385242 5.45904545,34.5063273 C5.78154545,35.2125697 6.02977273,35.9572515 6.25519697,36.7025848 C6.53990909,37.6466303 6.76663636,38.6069636 7.26439394,39.4747818 C7.78104545,40.3758273 8.53940909,40.9739182 9.53231818,41.2390848 C10.6594394,41.5400848 11.8139242,41.4781909 12.9605909,41.3785091 C14.3183485,41.2605848 15.5783788,41.4045697 16.6859545,42.3336303 C17.5407424,43.0509485 18.4424394,43.7272212 19.3884394,44.3181455 C20.7416364,45.1631606 22.1756212,45.1651152 23.541197,44.3331303 C24.3523333,43.8386303 25.0839848,43.2144788 25.8625455,42.6639485 C26.3720303,42.3036606 26.8697879,41.9055848 27.4281364,41.6397667 C28.2327576,41.2560242 29.1194697,41.3485394 29.9905455,41.3706909 C30.9919242,41.3954485 32.0017727,41.4221606 32.9933788,41.3107515 C34.3120455,41.1628576 35.2385,40.3823424 35.8378939,39.2031 C36.3851667,38.126797 36.5982121,36.944297 36.9454697,35.8041455 C37.1845758,35.0197212 37.4640758,34.2502818 38.1494697,33.7375394 C38.8218333,33.2332667 39.5280758,32.7752515 40.2141212,32.2892212 C41.2552424,31.5517061 42.2865909,30.8311303 42.7367879,29.5189788 C42.9648182,28.8550848 43.0247576,28.1983576 42.8644848,27.5748576 C42.5641364,26.4034333 42.1595455,25.2554636 41.7445303,24.1172667 C41.3783788,23.1126303 41.3334242,22.1281909 41.6956667,21.1235545 C42.0240303,20.2146909 42.3719394,19.3116909 42.6683788,18.392403 C42.9433182,17.5376152 43.0566818,16.6587212 42.8058485,15.7700545 C42.484,14.6279485 41.6885,13.8676303 40.7568333,13.1985242" id="Fill-1" fill="#000000" mask="url(#mask-2)"></path>
                </g>
                <path d="M32.5593394,27.4622106 C32.4590061,27.3618773 32.2961273,27.3618773 32.1951424,27.4622106 C32.1951424,27.4622106 32.1951424,27.4622106 32.1944909,27.4622106 L26.9628242,32.7088621 C26.8624909,32.809847 26.8631424,32.9727258 26.9634758,33.0730591 C27.0644606,33.1740439 27.2273394,33.1733924 27.3283242,33.0724076 L32.5599909,27.8270591 C32.6603242,27.7260742 32.6603242,27.5625439 32.5593394,27.4622106" id="Fill-4" fill="#000000"></path>
                <path d="M28.0044667,27.5611106 C28.5100424,27.5611106 28.920497,27.9715652 28.920497,28.4777924 C28.920497,28.9840197 28.5100424,29.3938227 28.0044667,29.3938227 C27.4982394,29.3938227 27.0884364,28.9840197 27.0884364,28.4777924 C27.0884364,27.9715652 27.4988909,27.5617621 28.0044667,27.5611106 M28.0044667,29.8524894 C28.7634818,29.8524894 29.3791636,29.2368076 29.3791636,28.4777924 C29.3791636,27.7181258 28.7634818,27.1030955 28.0044667,27.1030955 C27.2454515,27.1030955 26.6297697,27.7181258 26.6297697,28.4777924 C26.6297697,29.2368076 27.2454515,29.8524894 28.0044667,29.8524894" id="Fill-6" fill="#000000"></path>
                <path d="M31.5477318,33.0026303 C31.0421561,33.0026303 30.6317015,32.5928273 30.6317015,32.0859485 C30.6317015,31.5797212 31.0421561,31.1699182 31.5477318,31.1699182 C32.0539591,31.1699182 32.4644136,31.5803727 32.4644136,32.0859485 C32.4637621,32.5921758 32.0539591,33.0026303 31.5477318,33.0026303 M31.5477318,30.7112515 C30.7887167,30.7112515 30.1736864,31.3269333 30.1736864,32.0859485 C30.1736864,32.8456152 30.7887167,33.461297 31.5477318,33.461297 C32.3073985,33.461297 32.9224288,32.8456152 32.9224288,32.0859485 C32.9224288,31.3269333 32.3073985,30.7112515 31.5477318,30.7112515" id="Fill-8" fill="#000000"></path>
                <path d="M11.9717212,23.8979667 C11.9717212,28.3771333 12.9164182,34.1163303 17.5004788,34.1163303 C22.1900848,34.1163303 23.0996,28.622103 23.0996,23.6881788 C23.0996,19.2787242 22.1900848,13.6098909 17.6405545,13.6098909 C12.8812364,13.6098909 11.9717212,18.7887848 11.9717212,23.8979667 M25.0241758,23.6881788 C25.0241758,28.9719667 23.6592515,35.7959364 17.5004788,35.7959364 C11.5169636,35.7959364 10.0119636,29.5316182 10.0119636,23.8627848 C10.0119636,18.2291333 11.6218576,11.9302848 17.6053727,11.9302848 C23.6247212,11.9302848 25.0241758,18.2291333 25.0241758,23.6881788" id="Fill-10" fill="#000000"></path>
            </g>
        </g>
    </g>
</svg>