<?xml version="1.0" encoding="UTF-8"?>
<svg width="50px" height="50px" viewBox="0 0 50 50" version="1.1" xmlns="http://www.w3.org/2000/svg" xmlns:xlink="http://www.w3.org/1999/xlink">
    <!-- Generator: Sketch 52.6 (67491) - http://www.bohemiancoding.com/sketch -->
    <title>rtb-1</title>
    <desc>Created with Sketch.</desc>
    <defs>
        <polygon id="path-1" points="0 0.0297188353 22.5296432 0.0297188353 22.5296432 32.1632417 0 32.1632417"></polygon>
        <polygon id="path-3" points="0.614382242 0.371421115 18.2417041 0.371421115 18.2417041 25.3802713 0.614382242 25.3802713"></polygon>
    </defs>
    <g id="rtb-1" stroke="none" stroke-width="1" fill="none" fill-rule="evenodd">
        <g id="Group-45" transform="translate(2.000000, 1.000000)">
            <g id="Group-3" transform="translate(0.000000, 14.423799)">
                <mask id="mask-2" fill="white">
                    <use xlink:href="#path-1"></use>
                </mask>
                <g id="Clip-2"></g>
                <path d="M10.8524567,28.9303213 C10.9733905,29.0242379 11.1194116,29.0711963 11.2647894,29.0711963 C11.4101673,29.0711963 11.5555451,29.0242379 11.6771222,28.9303213 C11.7594601,28.8659948 12.8858168,27.9885816 14.3859104,26.5212945 C16.6585651,26.9844451 17.880125,27.8766535 17.880125,28.519275 C17.880125,28.9985073 17.2227083,29.5645804 16.1645377,29.9955678 C14.8664292,30.5249748 13.1263979,30.8163738 11.2647894,30.8163738 C7.22572955,30.8163738 4.64881062,29.4552254 4.64881062,28.519275 C4.64881062,27.8760102 5.87101381,26.9844451 8.14431173,26.5206512 C9.65341103,27.9963007 10.7810543,28.8750005 10.8524567,28.9303213 M11.2647894,0.0297188353 C5.0534242,0.0297188353 -6.43264833e-05,5.08320737 -6.43264833e-05,11.2945726 C-6.43264833e-05,15.1509453 1.83452698,19.2974304 5.4522484,23.6188835 C5.9900178,24.2608618 6.52585741,24.8558818 7.03982601,25.3987973 C4.7041314,26.0362728 3.3011708,27.1819275 3.3011708,28.5186318 C3.3011708,30.8858464 7.40391391,32.1633703 11.2647894,32.1633703 C15.1250217,32.1633703 19.2277648,30.8858464 19.2277648,28.5186318 C19.2277648,27.183214 17.8254475,26.036916 15.4903961,25.3987973 C16.4231301,24.4139589 17.4272665,23.2560822 18.3792985,21.9637631 C18.5999383,21.6640017 18.5362551,21.2426632 18.2364937,21.0220234 C17.9373756,20.8013836 17.5153938,20.8650668 17.294754,21.1641849 C16.1452397,22.7247454 14.9005223,24.0955428 13.8146912,25.1852334 C13.6898979,25.2482734 13.5863322,25.3492659 13.5207192,25.4766324 C12.5481028,26.4325239 11.7292266,27.1414018 11.2654327,27.5292905 C10.8054983,27.1452614 9.99948751,26.4460325 9.03909311,25.502363 C8.97026377,25.3511957 8.84932999,25.232835 8.70137907,25.1665787 C5.65037397,22.0975622 1.3475755,16.7944869 1.3475755,11.2945726 C1.3475755,5.82617825 5.79639509,1.37735866 11.2647894,1.37735866 C16.7331838,1.37735866 21.1820034,5.82617825 21.1820034,11.2945726 C21.1820034,13.6830149 20.3682734,16.2618636 18.7633276,18.9597164 C18.5729212,19.2800622 18.6784166,19.6930383 18.9981193,19.8834447 C19.3178219,20.0732078 19.7314412,19.9683556 19.9218476,19.648653 C21.65223,16.7391661 22.5296432,13.9287421 22.5296432,11.2945726 C22.5296432,5.08320737 17.4761547,0.0297188353 11.2647894,0.0297188353" id="Fill-1" fill="#000000" mask="url(#mask-2)"></path>
            </g>
            <path d="M11.2648538,20.8203599 C10.1989639,20.8203599 9.18582182,21.1567874 8.33413918,21.7929763 C8.03630756,22.0161892 7.97584067,22.4381709 8.1984103,22.7366458 C8.42097993,23.0338342 8.84360493,23.0949443 9.14143655,22.8723747 C9.75768426,22.4117971 10.4922927,22.1679997 11.2648538,22.1679997 C13.2223086,22.1679997 14.8150324,23.7607234 14.8150324,25.7181783 C14.8150324,27.6762765 13.2223086,29.2690002 11.2648538,29.2690002 C9.30675561,29.2690002 7.71403188,27.6762765 7.71403188,25.7181783 C7.71403188,25.3843239 7.76034695,25.054329 7.85169056,24.7365562 C7.95461293,24.3795442 7.74748165,24.0064506 7.38982641,23.9035282 C7.03217116,23.8012491 6.65907755,24.0077371 6.55679845,24.3647491 C6.43071854,24.8028125 6.36703532,25.258244 6.36703532,25.7181783 C6.36703532,28.4192474 8.56378473,30.61664 11.2648538,30.61664 C13.9652795,30.61664 16.1626722,28.4192474 16.1626722,25.7181783 C16.1626722,23.0177526 13.9652795,20.8203599 11.2648538,20.8203599" id="Fill-4" fill="#000000"></path>
            <g id="Group-8" transform="translate(27.660388, 0.271972)">
                <mask id="mask-4" fill="white">
                    <use xlink:href="#path-3"></use>
                </mask>
                <g id="Clip-7"></g>
                <path d="M9.42775372,24.0326315 C6.23844668,24.0326315 4.49905857,22.9693147 4.49905857,22.4231829 C4.49905857,22.0674574 5.29027432,21.4158301 6.98013103,21.0568884 C8.11742326,22.1633039 8.96138672,22.8200773 9.01542097,22.8625327 C9.13699802,22.9564494 9.28237587,23.0034077 9.42775372,23.0034077 C9.57377484,23.0034077 9.71915269,22.9564494 9.84072975,22.8625327 C9.89476399,22.8207205 10.7387275,22.1633039 11.8760197,21.0568884 C12.6286395,21.2177046 13.2809101,21.4524962 13.7369848,21.7303866 C14.1248735,21.9671081 14.3564489,22.2257006 14.3564489,22.4231829 C14.3564489,22.9693147 12.6170608,24.0326315 9.42775372,24.0326315 M12.9644238,19.9440402 C13.3072839,19.5760927 13.6604363,19.1804848 14.014232,18.7572166 C16.8195099,15.4070933 18.2417685,12.1862663 18.2417685,9.1847926 C18.2417685,4.32492678 14.2876195,0.371421115 9.42775372,0.371421115 C5.87757511,0.371421115 2.69019786,2.48390283 1.30717847,5.75426124 C1.16244388,6.09647813 1.32261682,6.492086 1.66547698,6.63682059 C2.00769387,6.78219844 2.40330174,6.6220255 2.54803633,6.27916534 C3.72006486,3.50862371 6.42049063,1.71906094 9.42775372,1.71906094 C13.5446487,1.71906094 16.8941286,5.06789766 16.8941286,9.1847926 C16.8941286,14.7522497 11.0494244,20.0862017 9.42775372,21.4582856 C9.07009848,21.1565944 8.50788501,20.6619238 7.84853856,20.0154426 C7.78292554,19.8855031 7.67614358,19.7819375 7.54877715,19.717611 C5.22273151,17.3754837 1.96202207,13.3499324 1.96202207,9.1847926 C1.96202207,8.81298552 1.66033086,8.51129432 1.28788052,8.51129432 C0.916073449,8.51129432 0.614382242,8.81298552 0.614382242,9.1847926 C0.614382242,12.1862663 2.03664079,15.4070933 4.84191873,18.7572166 C5.19571439,19.1798416 5.54822351,19.5760927 5.89108367,19.9440402 C4.15426862,20.465728 3.15141874,21.3534334 3.15141874,22.4231829 C3.15141874,23.3250402 3.88345413,24.1201155 5.21179601,24.6617445 C6.34908823,25.1248952 7.84660876,25.3802713 9.42775372,25.3802713 C11.0095419,25.3802713 12.5070625,25.1248952 13.6437114,24.6617445 C14.9720533,24.1201155 15.7040887,23.3250402 15.7040887,22.4231829 C15.7040887,21.3553632 14.7005956,20.4670145 12.9644238,19.9440402" id="Fill-6" fill="#000000" mask="url(#mask-4)"></path>
            </g>
            <path d="M28.3490672,22.021464 L28.0415866,22.021464 C27.8177304,22.021464 27.5925877,22.0362591 27.3719479,22.0658493 C27.0033571,22.1147374 26.7441214,22.4530947 26.7936528,22.8223287 C26.8386813,23.160686 27.1281505,23.4070564 27.4607184,23.4070564 C27.4903086,23.4070564 27.5198988,23.4051266 27.5501322,23.401267 C27.7115917,23.3800393 27.8769108,23.3691038 28.0415866,23.3691038 L28.3490672,23.3691038 C28.7215175,23.3691038 29.0225654,23.0674126 29.0225654,22.6949623 C29.0225654,22.3231552 28.7215175,22.021464 28.3490672,22.021464" id="Fill-9" fill="#000000"></path>
            <path d="M26.121827,42.2346462 L26.1186107,42.2346462 L25.2289754,42.2385058 C24.8571683,42.2404356 24.5567637,42.5434133 24.5580502,42.9158636 C24.55998,43.2863842 24.8616712,43.5861456 25.2321917,43.5861456 L25.2354081,43.5861456 L26.1250433,43.582286 C26.4968504,43.5803562 26.7972551,43.2773785 26.7953253,42.9049281 C26.7940388,42.5344076 26.4923475,42.2346462 26.121827,42.2346462" id="Fill-11" fill="#000000"></path>
            <path d="M29.148774,30.7479304 L28.2591387,30.7479304 C27.8866884,30.7479304 27.5849972,31.0496216 27.5849972,31.4220719 C27.5849972,31.793879 27.8866884,32.0955702 28.2591387,32.0955702 L29.148774,32.0955702 C29.5205811,32.0955702 29.8222723,31.793879 29.8222723,31.4220719 C29.8222723,31.0496216 29.5212243,30.7479304 29.148774,30.7479304" id="Fill-13" fill="#000000"></path>
            <path d="M25.5787828,23.3940625 C25.326623,23.1206749 24.9007817,23.1033068 24.6267509,23.3554666 C24.3758776,23.5870419 24.1468753,23.8456344 23.9474632,24.1228815 C23.730683,24.4258593 23.7995123,24.8465545 24.1018468,25.0633347 C24.2208508,25.1488889 24.3585094,25.1900579 24.4942383,25.1900579 C24.7039427,25.1900579 24.9104307,25.0922816 25.0423,24.9089512 C25.1889643,24.7056795 25.3562132,24.5159163 25.5401869,24.3460944 C25.8142178,24.0939346 25.8309426,23.66745 25.5787828,23.3940625" id="Fill-15" fill="#000000"></path>
            <path d="M29.68114,42.2183073 L29.6779237,42.2183073 L28.7882884,42.2221668 C28.4164813,42.2240966 28.1160766,42.5270744 28.1173632,42.8995247 C28.119293,43.2700453 28.4209842,43.5698067 28.7915047,43.5698067 L28.794721,43.5698067 L29.6843563,43.5659471 C30.0561634,43.5640173 30.3565681,43.2610396 30.3546383,42.8885892 C30.3533517,42.5180687 30.0516605,42.2183073 29.68114,42.2183073" id="Fill-17" fill="#000000"></path>
            <path d="M22.562514,42.2506635 L22.5592977,42.2506635 L21.6696624,42.2545231 C21.2978554,42.2564529 20.9974507,42.5594306 20.9987372,42.9318809 C21.000667,43.3024015 21.301715,43.6021629 21.6728788,43.6021629 L21.6760951,43.6021629 L22.5657304,43.5983033 C22.9375374,43.5963735 23.2379421,43.2933958 23.2360123,42.9209454 C23.2347258,42.5504249 22.9330346,42.2506635 22.562514,42.2506635" id="Fill-19" fill="#000000"></path>
            <path d="M26.0762839,30.1819217 C25.8646497,30.0481226 25.6652376,29.8924525 25.4851235,29.7181277 C25.216882,29.4601785 24.7897542,29.4691842 24.5324483,29.7367824 C24.2738558,30.0050238 24.2822182,30.4315084 24.5504597,30.6894576 C24.7974734,30.9268223 25.0689311,31.1390997 25.3571138,31.3211437 C25.4690419,31.3919028 25.5938352,31.4253526 25.7160555,31.4253526 C25.9399117,31.4253526 26.1586218,31.3140678 26.2866315,31.1107961 C26.4854003,30.7962396 26.3908404,30.3800472 26.0762839,30.1819217" id="Fill-21" fill="#000000"></path>
            <path d="M24.4203915,27.7687136 C24.375363,27.536495 24.3522054,27.2978438 24.3522054,27.0585493 L24.3522054,27.0212399 C24.3567083,26.6487896 24.0588767,26.343882 23.6864263,26.3393792 L23.6787072,26.3393792 C23.3101164,26.3393792 23.0090685,26.6359243 23.0045656,27.0051583 L23.0045656,27.0585493 C23.0045656,27.3840413 23.0360856,27.7095333 23.097839,28.0266628 C23.1602357,28.3482952 23.4419857,28.5715081 23.758472,28.5715081 C23.8009275,28.5715081 23.8440262,28.5676486 23.8877682,28.5586428 C24.2531427,28.4878837 24.4911507,28.1340881 24.4203915,27.7687136" id="Fill-23" fill="#000000"></path>
            <path d="M32.708087,30.7479304 L31.8184517,30.7479304 C31.4460014,30.7479304 31.1443102,31.0496216 31.1443102,31.4220719 C31.1443102,31.793879 31.4460014,32.0955702 31.8184517,32.0955702 L32.708087,32.0955702 C33.0805373,32.0955702 33.3815853,31.793879 33.3815853,31.4220719 C33.3815853,31.0496216 33.0805373,30.7479304 32.708087,30.7479304" id="Fill-25" fill="#000000"></path>
            <path d="M43.5248425,32.1198856 C43.2649635,31.9146841 42.9877163,31.7287806 42.7001769,31.5666779 C42.3759715,31.3839906 41.9649252,31.4991351 41.782238,31.8233405 C41.5995508,32.1469027 41.7146952,32.5585922 42.0382574,32.7406362 C42.2653299,32.8686459 42.4846832,33.0159535 42.6898847,33.177413 C42.8133916,33.2751893 42.9606992,33.3227909 43.1067203,33.3227909 C43.3054892,33.3227909 43.5029715,33.2340203 43.6361273,33.0661282 C43.8664161,32.774086 43.8168847,32.3501744 43.5248425,32.1198856" id="Fill-27" fill="#000000"></path>
            <path d="M41.0240218,42.7010775 C40.9725606,42.3324868 40.6322735,42.0745376 40.264326,42.1259988 C40.0436862,42.1562322 39.8179002,42.1723138 39.5921142,42.1736004 L39.4666776,42.1742436 C39.0942273,42.1761734 38.7938226,42.4791511 38.7957524,42.8509582 C38.7976822,43.222122 39.0987301,43.5212402 39.4692507,43.5212402 L39.472467,43.5212402 L39.5985469,43.5205969 C39.8835132,43.5193104 40.1691228,43.4993692 40.4482997,43.4607733 C40.8175338,43.4099554 41.0748397,43.0696683 41.0240218,42.7010775" id="Fill-29" fill="#000000"></path>
            <path d="M43.9972562,40.8064696 C43.7405935,40.5369416 43.3141089,40.5266494 43.0452242,40.7833121 C42.8561043,40.9634262 42.6515461,41.1300318 42.4366957,41.278626 C42.1311449,41.4909034 42.0545964,41.9109553 42.2668738,42.2165061 C42.3974565,42.405626 42.6078041,42.5066186 42.8207248,42.5066186 C42.9532373,42.5066186 43.0870364,42.4680227 43.2041106,42.3869713 C43.4755684,42.1984947 43.7348041,41.9868606 43.9740986,41.7591448 C44.2436266,41.5024821 44.2539188,41.0759976 43.9972562,40.8064696" id="Fill-31" fill="#000000"></path>
            <path d="M45.3086158,37.5345674 C44.9432414,37.465738 44.5907323,37.7063191 44.521903,38.0716935 C44.4736581,38.3283562 44.4048288,38.5824458 44.3173447,38.8281729 C44.1925514,39.1787523 44.3752386,39.5640679 44.7258179,39.6888613 C44.8004366,39.7158784 44.8769851,39.7281004 44.9516039,39.7281004 C45.2282077,39.7281004 45.4880867,39.5563487 45.5865062,39.2803881 C45.6971478,38.9690479 45.7846318,38.6467722 45.845742,38.3212802 C45.9145713,37.9559058 45.6739903,37.6033967 45.3086158,37.5345674" id="Fill-33" fill="#000000"></path>
            <path d="M45.7087266,35.3688876 C45.617383,35.0511148 45.5003088,34.7378448 45.360077,34.4374402 C45.2024771,34.0997261 44.8017232,33.9543483 44.4646524,34.1113049 C44.1275816,34.2689048 43.9815605,34.6696588 44.1391604,35.0067295 C44.2491587,35.243451 44.3417888,35.4904647 44.4131912,35.7406947 C44.4981022,36.0359533 44.7682734,36.2282895 45.0609589,36.2282895 C45.122069,36.2282895 45.185109,36.219927 45.2468624,36.2025589 C45.6045177,36.0996365 45.8110057,35.7265429 45.7087266,35.3688876" id="Fill-35" fill="#000000"></path>
            <path d="M36.2674,30.7479304 L35.3777647,30.7479304 C35.0059576,30.7479304 34.7042664,31.0496216 34.7042664,31.4220719 C34.7042664,31.793879 35.0053144,32.0955702 35.3777647,32.0955702 L36.2674,32.0955702 C36.6398503,32.0955702 36.9408982,31.793879 36.9408982,31.4220719 C36.9408982,31.0496216 36.6398503,30.7479304 36.2674,30.7479304" id="Fill-37" fill="#000000"></path>
            <path d="M33.2407746,42.20229 L33.2375583,42.20229 L32.347923,42.2061496 C31.9754727,42.2080793 31.675068,42.5110571 31.6769978,42.8828642 C31.6789276,43.254028 31.9799755,43.5537894 32.3504961,43.5537894 L32.3537124,43.5537894 L33.2433476,43.5499298 C33.615798,43.548 33.9162027,43.2450223 33.9142729,42.8725719 C33.9123431,42.5020514 33.6112951,42.20229 33.2407746,42.20229" id="Fill-39" fill="#000000"></path>
            <path d="M39.8565604,30.7544917 C39.7613572,30.7499888 39.6648675,30.748059 39.5696643,30.748059 L38.9366917,30.748059 C38.5648846,30.748059 38.2631934,31.0497502 38.2631934,31.4222006 C38.2631934,31.7940077 38.5648846,32.0956989 38.9366917,32.0956989 L39.5696643,32.0956989 L39.5696643,32.0950556 C39.6455696,32.0950556 39.7221181,32.0969854 39.7967368,32.1002017 C39.807029,32.100845 39.8173213,32.1014882 39.8276135,32.1014882 C40.185912,32.1014882 40.4837436,31.819095 40.4998253,31.4575801 C40.5159069,31.0857731 40.2283675,30.7705733 39.8565604,30.7544917" id="Fill-41" fill="#000000"></path>
            <path d="M36.8000876,42.1862727 L36.7968712,42.1862727 L35.907236,42.1901323 C35.5347856,42.1920621 35.234381,42.4950398 35.2363108,42.8668469 C35.2382405,43.2380107 35.5392885,43.5377721 35.909809,43.5377721 L35.9130254,43.5377721 L36.8026606,43.5339125 C37.175111,43.5319827 37.4755156,43.229005 37.4735858,42.8565546 C37.4716561,42.4853908 37.1706081,42.1862727 36.8000876,42.1862727" id="Fill-43" fill="#000000"></path>
        </g>
        <g id="Group" transform="translate(33.000000, 9.000000)">
            <polygon id="250+" fill="#000000" points="11.8243802 3 11.8243802 2.17027864 11 2.17027864 11 1.82352941 11.8243802 1.82352941 11.8243802 1 12.1756198 1 12.1756198 1.82352941 13 1.82352941 13 2.17027864 12.1756198 2.17027864 12.1756198 3"></polygon>
            <path d="M2.97547557,3.47094188 L2.97547557,3.93319973 L0.0004912338,3.93319973 C-0.00360233237,3.81741202 0.0178885677,3.70607936 0.0649645786,3.5991984 C0.140695553,3.42284481 0.261965632,3.24916585 0.428778453,3.07815631 C0.595591274,2.90714677 0.836596368,2.70941996 1.15180096,2.48496994 C1.64098212,2.13582546 1.97153263,1.85927512 2.14346241,1.65531062 C2.31539219,1.45134612 2.40135579,1.25851794 2.40135579,1.07682031 C2.40135579,0.886215925 2.32306751,0.725451556 2.1664886,0.594522378 C2.0099097,0.4635932 1.80574615,0.398129593 1.55399183,0.398129593 C1.28791003,0.398129593 1.07504778,0.467601176 0.915398698,0.606546426 C0.755749618,0.745491677 0.674902899,0.937874522 0.672856116,1.18370073 L0.104876649,1.13293253 C0.143765528,0.764193213 0.290108323,0.483189566 0.543909426,0.28991316 C0.797710528,0.0966367535 1.1384948,0 1.56627247,0 C1.9981437,0 2.33995134,0.104207375 2.59170566,0.312625251 C2.84345998,0.521043126 2.96933525,0.77933491 2.96933525,1.08750835 C2.96933525,1.24426709 2.93249371,1.3983515 2.85880952,1.5497662 C2.78512533,1.7011809 2.66283187,1.86060927 2.49192549,2.02805611 C2.3210191,2.19550295 2.03703221,2.42529357 1.63995629,2.71743487 C1.30837743,2.95969838 1.09551518,3.1240254 1.00136316,3.21042084 C0.907211136,3.29681629 0.829434546,3.38365576 0.768031053,3.47094188 L2.97547557,3.47094188 Z M6.47238699,3.47094188 L6.47238699,3.93319973 L3.49740265,3.93319973 C3.49330908,3.81741202 3.51479998,3.70607936 3.561876,3.5991984 C3.63760697,3.42284481 3.75887705,3.24916585 3.92568987,3.07815631 C4.09250269,2.90714677 4.33350778,2.70941996 4.64871238,2.48496994 C5.13789354,2.13582546 5.46844405,1.85927512 5.64037383,1.65531062 C5.81230361,1.45134612 5.89826721,1.25851794 5.89826721,1.07682031 C5.89826721,0.886215925 5.81997893,0.725451556 5.66340002,0.594522378 C5.50682111,0.4635932 5.30265756,0.398129593 5.05090324,0.398129593 C4.78482144,0.398129593 4.5719592,0.467601176 4.41231012,0.606546426 C4.25266103,0.745491677 4.17181432,0.937874522 4.16976753,1.18370073 L3.60178807,1.13293253 C3.64067694,0.764193213 3.78701974,0.483189566 4.04082084,0.28991316 C4.29462195,0.0966367535 4.63540622,0 5.06318388,0 C5.49505511,0 5.83686276,0.104207375 6.08861708,0.312625251 C6.3403714,0.521043126 6.46624667,0.77933491 6.46624667,1.08750835 C6.46624667,1.24426709 6.42940513,1.3983515 6.35572094,1.5497662 C6.28203675,1.7011809 6.15974329,1.86060927 5.9888369,2.02805611 C5.81793052,2.19550295 5.53394362,2.42529357 5.1368677,2.71743487 C4.80528884,2.95969838 4.5924266,3.1240254 4.49827458,3.21042084 C4.40412255,3.29681629 4.32634596,3.38365576 4.26494247,3.47094188 L6.47238699,3.47094188 Z M7.06492773,2.00133601 C7.06492773,1.53818517 7.11967836,1.16544341 7.22918125,0.883099532 C7.33868415,0.600755658 7.50140096,0.382988965 7.71733658,0.229792919 C7.93327219,0.0765968737 8.20497857,0 8.53246387,0 C8.77398427,0 8.98582314,0.0423064128 9.16798684,0.126920508 C9.35015053,0.211534603 9.50058683,0.333555204 9.61930025,0.492985972 C9.73801367,0.65241674 9.8311409,0.846580908 9.89868474,1.0754843 C9.96622859,1.3043877 10,1.61300184 10,2.00133601 C10,2.46092414 9.94576106,2.83188458 9.83728156,3.11422846 C9.72880205,3.39657233 9.56659693,3.61478436 9.35066131,3.76887108 C9.1347257,3.9229578 8.86199594,4 8.53246387,4 C8.09854585,4 7.75776158,3.86461948 7.51010083,3.59385438 C7.21331728,3.26786744 7.06492773,2.73703329 7.06492773,2.00133601 Z M7.6329072,2.00133601 C7.6329072,2.64440313 7.71938249,3.07236589 7.89233566,3.28523714 C8.06528883,3.49810839 8.27866276,3.60454242 8.53246387,3.60454242 C8.78626497,3.60454242 8.9996389,3.49766306 9.17259207,3.28390114 C9.34554525,3.07013921 9.43202053,2.64262178 9.43202053,2.00133601 C9.43202053,1.35648754 9.34554525,0.928079439 9.17259207,0.716098864 C8.9996389,0.50411829 8.78421822,0.398129593 8.52632355,0.398129593 C8.27252244,0.398129593 8.06989396,0.491649031 7.91843201,0.678690715 C7.72808118,0.91739153 7.6329072,1.35826888 7.6329072,2.00133601 Z" id="220" fill="#0A1B35"></path>
        </g>
    </g>
</svg>