<?xml version="1.0" encoding="UTF-8"?>
<svg width="50px" height="50px" viewBox="0 0 50 50" version="1.1" xmlns="http://www.w3.org/2000/svg" xmlns:xlink="http://www.w3.org/1999/xlink">
    <!-- Generator: Sketch 52.6 (67491) - http://www.bohemiancoding.com/sketch -->
    <title>rtb-3 copy</title>
    <desc>Created with Sketch.</desc>
    <defs>
        <polygon id="path-1" points="0 0.440388431 47.8776985 0.440388431 47.8776985 42.958904 0 42.958904"></polygon>
    </defs>
    <g id="rtb-3-copy" stroke="none" stroke-width="1" fill="none" fill-rule="evenodd">
        <g id="Group-28" transform="translate(1.000000, 4.000000)">
            <path d="M17.6537826,16.4993814 C17.6537826,16.3669248 17.5720414,16.2684773 17.4479379,16.2684773 C17.3298009,16.2684773 17.2343366,16.356185 17.2343366,16.4910283 C17.2343366,16.6234849 17.3441205,16.724319 17.4175086,16.8257497 C17.5380322,16.7440085 17.6537826,16.6598806 17.6537826,16.4993814" id="Fill-1" fill="#000000"></path>
            <path d="M17.3327245,17.873052 C17.5666118,17.873052 17.6507397,17.7298557 17.7127914,17.6481144 L17.3190015,17.1576669 C17.2002678,17.2310551 17.0087427,17.2960901 17.0087427,17.5353473 C17.0087427,17.7519318 17.1465692,17.873052 17.3327245,17.873052" id="Fill-3" fill="#000000"></path>
            <path d="M12.2950173,16.9052237 C12.2950173,16.4368523 12.0957357,16.1999817 11.7037357,16.1999817 C11.2759367,16.1999817 11.0850082,16.4171628 11.0850082,16.9052237 L11.0850082,17.18028 L12.2950173,17.18028 L12.2950173,16.9052237 Z" id="Fill-5" fill="#000000"></path>
            <path d="M10.019687,16.2016523 L9.34487425,16.2016523 L9.34487425,17.0071318 L10.019687,17.0071318 C10.1962959,17.0071318 10.4934283,16.9522398 10.4934283,16.5835092 C10.4934283,16.2386447 10.1622867,16.2016523 10.019687,16.2016523" id="Fill-7" fill="#000000"></path>
            <polygon id="Fill-9" fill="#000000" points="23.6931482 16.7178751 23.6871817 16.7178751 23.4890934 17.351519 23.8781101 17.351519"></polygon>
            <path d="M43.5918319,20.5868018 C43.2839597,20.5868018 43.062602,20.6106678 42.9289521,20.6422904 L42.9289521,24.44654 C43.062602,24.470406 43.2684468,24.470406 43.4653417,24.470406 C44.7284529,24.4781625 45.4784437,23.7836602 45.4784437,22.4340346 C45.4862002,21.2580346 44.8072108,20.5868018 43.5918319,20.5868018" id="Fill-11" fill="#000000"></path>
            <path d="M29.4528036,21.41567 C29.4528036,20.8315482 29.042904,20.563055 28.4110502,20.563055 C28.103178,20.563055 27.9056864,20.5869211 27.8114155,20.6107872 L27.8114155,22.2921509 L28.3871841,22.2921509 C29.042904,22.2921509 29.4528036,21.9443031 29.4528036,21.41567" id="Fill-13" fill="#000000"></path>
            <path d="M21.6048681,16.5197869 L21.3077357,16.5197869 L21.3077357,16.9284931 L21.6394739,16.9284931 C21.7576109,16.9284931 21.9181101,16.908207 21.9181101,16.7238417 C21.9181101,16.5943683 21.846512,16.5197869 21.6048681,16.5197869" id="Fill-15" fill="#000000"></path>
            <path d="M3.71755615,20.642171 L3.70204322,20.642171 C3.62268858,20.9500432 3.54393058,21.3211604 3.449063,21.636789 L3.03856681,22.9470356 L4.40370532,22.9470356 L3.98545265,21.636789 C3.88282861,21.3134039 3.79631415,20.9500432 3.71755615,20.642171" id="Fill-17" fill="#000000"></path>
            <g id="Group-21" transform="translate(0.000000, 0.156442)">
                <mask id="mask-2" fill="white">
                    <use xlink:href="#path-1"></use>
                </mask>
                <g id="Clip-20"></g>
                <path d="M45.675458,24.3613381 C45.1468248,24.8428359 44.3019664,25.0874629 43.2685661,25.0874629 C42.6999573,25.0874629 42.2739481,25.0558404 41.9583195,25.0164614 L41.9583195,19.7832316 C42.383732,19.7122301 42.9284748,19.6728511 43.5048401,19.6728511 C44.499458,19.6728511 45.1868005,19.8780992 45.675458,20.2885954 C46.1885783,20.706848 46.5048035,21.3381053 46.5048035,22.2462088 C46.5048035,23.1930946 46.1808218,23.9037065 45.675458,24.3613381 Z M41.105108,25.032571 L37.8927366,25.032571 L37.8927366,19.7122301 L40.986971,19.7122301 L40.986971,20.5093564 L38.8634885,20.5093564 L38.8634885,21.882848 L40.8682373,21.882848 L40.8682373,22.6722179 L38.8634885,22.6722179 L38.8634885,24.2354447 L41.105108,24.2354447 L41.105108,25.032571 Z M40.5263561,29.5587689 L38.6224413,29.5587689 L38.6224413,26.63995 L40.4565478,26.63995 L40.4565478,27.0772955 L39.1982099,27.0772955 L39.1982099,27.8308663 L40.386143,27.8308663 L40.386143,28.2640352 L39.1982099,28.2640352 L39.1982099,29.1214234 L40.5263561,29.1214234 L40.5263561,29.5587689 Z M37.5979908,29.5587689 C37.551452,29.4722544 37.4768705,29.2341905 37.3873728,28.8702331 C37.2984717,28.4889728 37.1493089,28.3678526 36.8217472,28.3594995 L36.5317746,28.3594995 L36.5317746,29.5587689 L35.9607792,29.5587689 L35.9607792,26.6787324 C36.1761704,26.6447232 36.4989588,26.6184706 36.8312937,26.6184706 C37.2847488,26.6184706 37.5932176,26.6876821 37.8044322,26.8523579 C37.9774611,26.9866045 38.0753119,27.1900626 38.0753119,27.4364797 C38.0753119,27.8135634 37.799659,28.0689302 37.5049131,28.168571 L37.5049131,28.1816973 C37.7292541,28.2598587 37.864694,28.4633168 37.9440486,28.7443397 C38.0424961,29.108297 38.1272206,29.4460018 38.1922556,29.5587689 L37.5979908,29.5587689 Z M33.0688097,25.032571 L33.0688097,24.4955847 L35.7925235,20.5409789 L35.7925235,20.5171129 L33.3134367,20.5171129 L33.3134367,19.7122301 L37.055038,19.7122301 L37.055038,20.2808389 L34.3712998,24.195469 L34.3712998,24.2270916 L37.094417,24.2270916 L37.094417,25.032571 L33.0688097,25.032571 Z M35.591452,27.0856486 L34.6839451,27.0856486 L34.6839451,29.5587689 L34.1081765,29.5587689 L34.1081765,27.0856486 L33.210216,27.0856486 L33.210216,26.63995 L35.591452,26.63995 L35.591452,27.0856486 Z M32.8408888,29.5587689 L32.246624,29.5587689 L31.423245,28.2765649 C31.2221734,27.9561631 31.0121521,27.5969789 30.8576194,27.268224 L30.8438964,27.2724005 C30.8671658,27.6488876 30.8713424,28.0343244 30.8713424,28.5152255 L30.8713424,29.5587689 L30.3433059,29.5587689 L30.3433059,26.63995 L30.9972358,26.63995 L31.8122617,27.8917247 C32.022283,28.2163031 32.2048584,28.5540078 32.3498447,28.8702331 L32.3593911,28.8702331 C32.3212054,28.4806197 32.3074824,28.103536 32.3074824,27.6578374 L32.3074824,26.63995 L32.8408888,26.63995 L32.8408888,29.5587689 Z M29.00621,37.9918404 C24.3063865,39.8510063 15.6734368,38.4309759 11.5279026,33.367195 C11.1705083,32.8355786 11.2158539,32.0306958 11.9145327,31.4585071 L12.6764566,30.9471768 L27.1207914,30.9471768 L29.8427153,36.205466 C29.9751719,37.0479378 29.6816194,37.5479317 29.00621,37.9918404 Z M9.91992692,29.5587689 L9.91992692,26.63995 L11.7534368,26.63995 L11.7534368,27.0772955 L10.4950989,27.0772955 L10.4950989,27.8308663 L11.6830319,27.8308663 L11.6830319,28.2640352 L10.4950989,28.2640352 L10.4950989,29.1214234 L11.8238417,29.1214234 L11.8238417,29.5587689 L9.91992692,29.5587689 Z M8.60371383,25.1190855 C7.3728219,25.1190855 6.57509892,24.4323397 6.57509892,22.7587324 L6.57509892,19.7122301 L7.54644747,19.7122301 L7.54644747,22.8142209 C7.54644747,23.8559744 7.98021307,24.3374721 8.63533636,24.3374721 C9.33819176,24.3374721 9.75644442,23.8559744 9.75644442,22.8142209 L9.75644442,19.7122301 L10.7271963,19.7122301 L10.7271963,22.7509759 C10.7271963,24.3929607 9.88233787,25.1190855 8.60371383,25.1190855 Z M8.20276406,29.6017278 C7.87102586,29.6017278 7.52496802,29.5152133 7.3519391,29.4203457 L7.47783255,28.978227 C7.66518111,29.0778678 7.94620394,29.1643823 8.2403531,29.1643823 C8.61027699,29.1643823 8.81612174,29.0044797 8.81612174,28.7664158 C8.81612174,28.5456547 8.65681581,28.4155847 8.25467273,28.2813381 C7.73498933,28.1077126 7.40265447,27.8523457 7.40265447,27.4323031 C7.40265447,26.9561753 7.83343681,26.5922179 8.51660272,26.5922179 C8.85788734,26.5922179 9.11027091,26.6614295 9.27435005,26.7395908 L9.13413696,27.1685832 C9.02136984,27.1119013 8.80180211,27.0295634 8.50705629,27.0295634 C8.14250226,27.0295634 7.98319633,27.2115421 7.98319633,27.3803945 C7.98319633,27.605332 8.16577167,27.709746 8.58700759,27.8612955 C9.13413696,28.0516273 9.40024351,28.3069941 9.40024351,28.7270368 C9.40024351,29.1948115 9.01719328,29.6017278 8.20276406,29.6017278 Z M7.3519391,15.8721814 L7.38475493,15.8721814 L8.94141855,15.8721814 L8.94141855,16.0452103 L8.24094975,16.0452103 L8.24094975,17.9294356 L8.05181124,17.9294356 L8.05181124,16.0452103 L7.3519391,16.0452103 L7.3519391,15.8721814 Z M10.7588188,17.8817035 L10.7802983,17.9294356 L10.5845966,17.9294356 L10.5750502,17.9097461 L10.1627641,17.0141723 L10.1621674,17.0141723 L10.1544109,17.0147689 L10.1520243,17.0153656 L10.1514277,17.0153656 L10.1496377,17.0159622 L10.1484444,17.0159622 L10.1472511,17.0159622 L10.1460578,17.0159622 L10.1436712,17.0165589 L10.1406879,17.0165589 C10.1221918,17.0189455 10.1019056,17.0207354 10.0774429,17.0219287 L10.0762496,17.0219287 L10.0661065,17.0225254 L10.0637199,17.0225254 L10.0631233,17.0225254 L10.0529802,17.023122 C10.0458204,17.023122 10.0380639,17.023122 10.0303074,17.023122 L9.34475492,17.023122 L9.34475492,17.9294356 L9.15561642,17.9294356 L9.15561642,15.8721814 L10.0195677,15.8721814 C10.45393,15.8721814 10.6830441,16.0613199 10.6830441,16.4187141 C10.6830441,16.5738435 10.6430685,16.7063001 10.5672937,16.802361 L10.5625205,16.8083275 L10.5601339,16.8119074 C10.558344,16.8136974 10.556554,16.816084 10.5541674,16.8184706 L10.5541674,16.8190672 L10.5452176,16.8286137 L10.5416377,16.8321936 L10.5392511,16.8351768 L10.5356712,16.8387567 L10.5344779,16.8405467 L10.5297047,16.8453199 L10.5273181,16.8477065 L10.5219482,16.8530764 L10.517175,16.8572529 L10.5147884,16.8596395 L10.5135951,16.8608328 L10.5124018,16.8614295 L10.5088219,16.865606 L10.5028554,16.8703793 L10.5004688,16.8721692 L10.4956956,16.8769424 L10.4921157,16.8799257 L10.4909223,16.8805223 L10.489729,16.881119 L10.4885357,16.8823123 L10.4879391,16.8829089 L10.4843592,16.8864888 L10.4807793,16.8882788 L10.4771994,16.8912621 L10.4748128,16.893052 L10.4706362,16.8966319 L10.4610898,16.9043884 L10.4598965,16.9043884 L10.4592998,16.904985 L10.4563166,16.906775 C10.4533333,16.9085649 10.45035,16.9103549 10.4479634,16.9127415 L10.4467701,16.9133382 L10.4443835,16.9151281 L10.4396103,16.9181114 L10.4354338,16.920498 L10.4330472,16.9222879 L10.4318539,16.9228846 L10.4306606,16.9234812 L10.426484,16.9264645 L10.4258873,16.9264645 L10.4223074,16.9282544 L10.4205175,16.9294477 L10.4157443,16.9318344 L10.4109711,16.9348176 L10.4026179,16.9401875 L10.4020213,16.9401875 L10.4002313,16.9407841 L10.3960548,16.9425741 L10.3942648,16.944364 L10.387105,16.9479439 L10.3865083,16.9479439 L10.3805418,16.9515239 L10.3793485,16.9515239 L10.3769619,16.9527172 L10.373382,16.9539105 L10.3721887,16.9545071 L10.3680122,16.9562971 L10.3632389,16.9586837 L10.359659,16.9604736 L10.3536925,16.9634569 L10.3513059,16.9640535 L10.3507093,16.9640535 L10.3441461,16.9664401 L10.3393729,16.9682301 L10.3381796,16.9688267 L10.7588188,17.8817035 Z M19.9812602,5.14975828 C20.6190806,5.10679938 21.2938934,5.54832145 21.4406697,6.43912205 L21.9519999,14.0673108 C21.9555799,14.1418922 21.9508066,14.2146837 21.9496133,14.2874752 L8.49512327,14.2874752 C10.6174125,10.1323945 15.02607,5.96239755 19.9812602,5.14975828 Z M22.5522313,16.4610764 C22.5522313,16.5744401 22.525382,16.6907872 22.4675068,16.7868481 C22.3869588,16.920498 22.2807549,17.0219287 22.1536681,17.0917369 L22.60235,17.9306289 L22.0265814,17.9306289 L21.6494977,17.2128572 L21.6453211,17.2128572 L21.3076164,17.2128572 L21.3076164,17.9306289 L20.6739725,17.9306289 L20.6739725,15.872778 L21.8809984,15.872778 C22.2413759,15.872778 22.5522313,16.071463 22.5522313,16.4610764 Z M23.3797869,15.872778 L23.9985144,15.872778 L24.7479086,17.9306289 L24.0909954,17.9306289 L24.0044809,17.6364797 L23.3505509,17.6364797 L23.2586666,17.9306289 L22.6208462,17.9306289 L23.3797869,15.872778 Z M18.6543074,16.4008146 L18.6543074,15.872778 L20.4406818,15.872778 L20.4406818,16.4008146 L19.8643165,16.4008146 L19.8643165,17.9306289 L19.2306727,17.9306289 L19.2306727,16.4008146 L18.6543074,16.4008146 Z M16.9472876,16.3518892 C16.9472876,16.0613199 17.1668554,15.872778 17.4401217,15.872778 C17.6984718,15.872778 17.9413089,16.0332773 17.9413089,16.3542758 C17.9413089,16.5911464 17.7718599,16.7594021 17.5773516,16.8638161 L17.8899969,17.2408998 C17.9132663,17.1788481 17.9389223,17.1006867 17.9520487,16.9706167 L18.2336681,16.9706167 C18.2139786,17.1454356 18.1662465,17.3226411 18.0755555,17.4634508 L18.461589,17.9306289 L18.067799,17.9306289 L17.884627,17.7050946 C17.7354642,17.8882666 17.5546788,17.9706045 17.3219847,17.9706045 C16.9526575,17.9706045 16.6883409,17.7504401 16.6883409,17.3733564 C16.6883409,17.0893503 16.919245,16.9085649 17.1495525,16.790428 C17.0463318,16.658568 16.9472876,16.5261114 16.9472876,16.3518892 Z M15.3363287,26.63995 L15.7671111,27.9651129 C15.888828,28.3332468 15.991452,28.6751281 16.0761765,29.0301357 L16.0851263,29.0301357 C16.1692541,28.6840779 16.2814246,28.3284736 16.4073181,27.9740626 L16.866143,26.63995 L17.4789041,26.63995 L16.3888219,29.5587689 L15.729522,29.5587689 L14.7098447,26.63995 L15.3363287,26.63995 Z M16.0672267,15.8811312 L16.0767732,15.8721814 L16.3345266,15.8721814 L16.2712815,15.9306532 L15.3852541,16.7367293 L16.3297534,17.8745436 L16.3756955,17.9294356 L16.135245,17.9294356 L16.1256986,17.9169059 L15.2474277,16.865606 L14.8715373,17.208084 L14.8715373,17.9294356 L14.6823987,17.9294356 L14.6823987,15.8721814 L14.8715373,15.8721814 L14.8715373,16.9759866 L16.0672267,15.8811312 Z M13.6233424,17.7659531 C13.9598538,17.7659531 14.2510198,17.4718039 14.2724992,17.1102331 L14.2742892,17.0798039 L14.3047184,17.0798039 L14.4574612,17.0798039 L14.4538812,17.1150063 C14.4091324,17.5881509 14.0600913,17.9318222 13.6233424,17.9318222 C13.3411263,17.9318222 13.1012724,17.8274082 12.9312268,17.6305132 C12.7719208,17.4461479 12.6836164,17.1866045 12.6836164,16.9008085 C12.6836164,16.6150124 12.7719208,16.3560657 12.9312268,16.1711038 C13.1012724,15.9742088 13.3411263,15.8703914 13.6233424,15.8703914 C14.3423074,15.8703914 14.4210654,16.5070185 14.4216621,16.5135817 L14.425242,16.5481875 L14.2450532,16.5481875 L14.2408767,16.5213382 C14.1949345,16.2307689 13.9467275,16.0356639 13.6233424,16.0356639 C13.1764505,16.0356639 12.8649984,16.3918648 12.8649984,16.9008085 C12.8649984,17.4103488 13.1764505,17.7659531 13.6233424,17.7659531 Z M11.0845905,17.1961509 L11.0845905,17.9294356 L10.895452,17.9294356 L10.895452,16.7486624 C10.895452,16.1657339 11.1675251,15.8703914 11.7033181,15.8703914 C12.2218082,15.8703914 12.4837382,16.1657339 12.4837382,16.7486624 L12.4837382,17.9294356 L12.2951963,17.9294356 L12.2951963,17.1961509 L11.0845905,17.1961509 Z M13.8303805,20.5248694 L13.8303805,25.032571 L12.8590319,25.032571 L12.8590319,20.5248694 L11.3435373,20.5248694 L11.3435373,19.7122301 L15.3613881,19.7122301 L15.3613881,20.5248694 L13.8303805,20.5248694 Z M14.3124748,28.7443397 C14.4103257,29.108297 14.4944535,29.4460018 14.5606819,29.5587689 L13.9658204,29.5587689 C13.9192815,29.4722544 13.8441035,29.2341905 13.7552024,28.8702331 C13.666898,28.4889728 13.5171385,28.3678526 13.1895768,28.3594995 L12.8996042,28.3594995 L12.8996042,29.5587689 L12.3286088,29.5587689 L12.3286088,26.6787324 C12.544,26.6447232 12.8667884,26.6184706 13.1985266,26.6184706 C13.6525784,26.6184706 13.9616438,26.6876821 14.1716651,26.8523579 C14.344694,26.9866045 14.4431415,27.1900626 14.4431415,27.4364797 C14.4431415,27.8135634 14.1668919,28.0689302 13.8721461,28.168571 L13.8721461,28.1816973 C14.0970837,28.2598587 14.2331202,28.4633168 14.3124748,28.7443397 Z M17.8201887,29.5587689 L18.3953607,29.5587689 L18.3953607,26.63995 L17.8201887,26.63995 L17.8201887,29.5587689 Z M16.9562374,22.6877308 L16.9562374,25.032571 L15.9854855,25.032571 L15.9854855,19.7122301 L16.9562374,19.7122301 L16.9562374,21.843469 L19.20621,21.843469 L19.20621,19.7122301 L20.1769619,19.7122301 L20.1769619,25.032571 L19.20621,25.032571 L19.20621,22.6877308 L16.9562374,22.6877308 Z M20.5946179,29.1602057 C20.8279086,29.1602057 21.0719391,29.1172468 21.2216986,29.0522118 L21.3147762,29.4722544 C21.1787397,29.5372894 20.8798173,29.6017278 20.5009436,29.6017278 C19.4997625,29.6017278 18.8917747,29.0217826 18.8917747,28.1339652 C18.8917747,27.1727597 19.611933,26.5922179 20.5761217,26.5922179 C20.9543987,26.5922179 21.2258751,26.6662027 21.3428188,26.7222879 L21.2169254,27.1465071 C21.0671659,27.0856486 20.8607245,27.03374 20.5993911,27.03374 C19.9579908,27.03374 19.4949893,27.4066471 19.4949893,28.1077126 C19.4949893,28.7491129 19.9025022,29.1602057 20.5946179,29.1602057 Z M23.569522,27.8308663 L23.569522,28.2640352 L22.381589,28.2640352 L22.381589,29.1214234 L23.7097351,29.1214234 L23.7097351,29.5587689 L21.8058203,29.5587689 L21.8058203,26.63995 L23.6393302,26.63995 L23.6393302,27.0772955 L22.381589,27.0772955 L22.381589,27.8308663 L23.569522,27.8308663 Z M26.0110197,22.3172103 C26.0110197,24.1006015 24.9292907,25.1190855 23.4615281,25.1190855 C21.9615464,25.1190855 21.0146605,23.974708 21.0146605,22.4114812 C21.0146605,20.7778496 22.040901,19.6257156 23.5402861,19.6257156 C25.0951598,19.6257156 26.0110197,20.8017156 26.0110197,22.3172103 Z M24.8887184,17.9300322 L25.5223622,17.9300322 L25.5223622,15.872778 L24.8887184,15.872778 L24.8887184,17.9300322 Z M25.8487305,15.872778 L26.482971,15.872778 L26.482971,17.403189 L27.3928645,17.403189 L27.3928645,17.9306289 L25.8487305,17.9306289 L25.8487305,15.872778 Z M26.7222282,29.1602057 C26.9561156,29.1602057 27.1995494,29.1172468 27.3487123,29.0522118 L27.4423865,29.4722544 C27.3069467,29.5372894 27.0074276,29.6017278 26.628554,29.6017278 C25.6273728,29.6017278 25.019385,29.0217826 25.019385,28.1339652 C25.019385,27.1727597 25.74014,26.5922179 26.703732,26.5922179 C27.0826057,26.5922179 27.3534855,26.6662027 27.4704292,26.7222879 L27.343939,27.1465071 C27.1947762,27.0856486 26.9889314,27.03374 26.7270015,27.03374 C26.0861978,27.03374 25.6231963,27.4066471 25.6231963,28.1077126 C25.6231963,28.7491129 26.0301126,29.1602057 26.7222282,29.1602057 Z M29.697729,27.8308663 L29.697729,28.2640352 L28.5091993,28.2640352 L28.5091993,29.1214234 L29.8379421,29.1214234 L29.8379421,29.5587689 L27.9340273,29.5587689 L27.9340273,26.63995 L29.7675372,26.63995 L29.7675372,27.0772955 L28.5091993,27.0772955 L28.5091993,27.8308663 L29.697729,27.8308663 Z M28.3164809,19.6728511 C29.0819847,19.6728511 29.6034581,19.7993412 29.957869,20.0988602 C30.2502282,20.3434873 30.4160973,20.7146045 30.4160973,21.1644797 C30.4160973,21.8512255 29.9507092,22.3172103 29.4531019,22.4985923 L29.4531019,22.5218617 C29.8319756,22.6644614 30.0604931,23.034982 30.1953363,23.5481022 C30.3606088,24.2115786 30.5026118,24.8273229 30.613589,25.032571 L29.6106179,25.032571 C29.5318599,24.8744584 29.4053698,24.4400961 29.2556103,23.7772164 C29.1058508,23.0827141 28.8534672,22.8613564 28.3003713,22.8458435 L27.8117138,22.8458435 L27.8117138,25.032571 L26.8481217,25.032571 L26.8481217,19.7832316 C27.2114824,19.7199866 27.7562252,19.6728511 28.3164809,19.6728511 Z M31.3403104,25.032571 L32.3110623,25.032571 L32.3110623,19.7122301 L31.3403104,19.7122301 L31.3403104,25.032571 Z M29.2347275,15.9354264 L33.3569923,9.49636405 C33.9136681,8.78694549 34.7179542,8.72429709 35.2561339,9.06916162 C37.8306848,11.0876335 39.5186118,14.2445162 40.3437807,17.4903001 L28.8236346,17.4903001 C28.7985753,16.9395908 28.9369984,16.4211007 29.2347275,15.9354264 Z M5.05125113,25.032571 L4.56975341,23.5248328 L2.88063317,23.5248328 L2.42300152,25.032571 L1.42003044,25.032571 L3.12585692,19.7122301 L4.36450532,19.7122301 L6.09300455,25.032571 L5.05125113,25.032571 Z M46.2309405,17.4903001 L43.5806148,17.4903001 C43.5919512,17.4807537 43.5985143,17.4688207 43.6098507,17.4598709 L44.6527975,16.6549881 L44.5788127,16.3697887 L43.2828857,16.1657339 C42.7608157,16.083396 42.3019908,15.2128815 42.8634398,14.6365162 L43.7112815,13.7665984 L43.6044809,13.4939287 L42.3783621,13.4813991 C41.7465083,13.4742392 41.1695463,12.6771129 41.6355311,12.0434691 L42.3765722,11.0333382 L42.2321825,10.7899044 L40.9601217,10.9557735 C40.2632328,11.0464645 39.7513058,10.2314386 40.1039268,9.57631535 L40.6671658,8.52978871 L40.4798172,8.30425447 L39.2513119,8.64315249 C38.7399816,8.78396223 37.9171993,8.19805051 38.1874824,7.45999268 L38.6152815,6.29174915 L38.4022769,6.08888766 L37.2036042,6.61752084 C36.6624413,6.85677806 35.8850045,6.22253758 36.0097046,5.61693636 L36.2680547,4.36098507 L36.0258142,4.19093941 L35.0168766,4.82696985 C34.3068614,5.27386178 33.5425509,4.71718598 33.5908797,3.9785315 L33.6702343,2.78940517 L33.4077077,2.66291506 L32.5019908,3.43378873 C31.9160791,3.93139603 31.0342282,3.55490897 30.9811263,2.91589527 L30.873729,1.60922861 L30.5933028,1.51734429 L29.8027396,2.40695159 C29.2699299,3.0077796 28.2645722,2.75062282 28.0873667,1.96721948 L27.8248401,0.806732418 L27.5330776,0.751840485 L26.809936,1.84550258 C26.455525,2.38129558 25.5014794,2.2852347 25.228213,1.56746301 L24.8051872,0.455304717 L24.5134246,0.440388431 L24.0104474,1.5209242 C23.6978021,2.19275372 22.759866,2.31089071 22.3529497,1.57700943 L21.7747945,0.533466056 L21.481242,0.566281886 L21.1023683,1.7924006 C20.9197929,2.38368219 19.9341248,2.56446757 19.5743439,2.09430624 L18.7784109,1.05434277 L18.4938082,1.12832755 L18.3064596,2.35921948 C18.1883226,3.13605966 17.1835616,3.25419664 16.8040913,2.88248279 L15.8906179,1.9952621 L15.6179482,2.1020627 L15.6078051,3.29059238 C15.601242,4.03402008 14.7605601,4.50298812 14.1931446,4.08712206 L13.1573577,3.32937473 L12.9139239,3.47436103 L13.0774064,4.71599268 C13.1794338,5.49581612 12.2910198,5.91705204 11.7349406,5.61812967 L10.6532115,5.03878111 L10.4282739,5.22672632 L10.7522557,6.39735645 C10.9670502,7.17240668 10.1454612,7.71535949 9.64904716,7.53517076 L8.41517197,7.09126208 L8.21231048,7.3048633 L8.73855706,8.51188917 C9.00048704,9.11152387 8.45395432,9.84838841 7.67234092,9.68609921 L6.49276102,9.44147212 L6.32331201,9.68371261 L7.01244443,10.7946776 C7.29406391,11.2487293 6.98022525,12.1657826 6.10255097,12.1156639 L4.91939116,12.0476456 L4.78395128,12.3083823 L5.55482495,13.2140992 C5.98083408,13.7152864 5.79766209,14.6687354 4.9164079,14.7427202 L3.72966818,14.8417643 L3.63897716,15.1233838 L4.61629223,15.9933016 C5.05483104,16.3858983 4.82989344,17.2647659 4.2553181,17.3966258 L3.84780517,17.4903001 L1.64735464,17.4903001 C0.741041094,17.4903001 0,18.2313412 0,19.1376547 L0,25.5582209 C0,26.4639378 0.741041094,27.2055756 1.64735464,27.2055756 L4.42059055,27.2055756 L4.59421612,27.2330215 C5.11747944,27.3147628 5.57570775,28.1858739 5.01425874,28.7616425 L4.16641704,29.6315604 L4.27321765,29.9054234 L5.49993301,29.9173564 C6.13178689,29.9239196 6.70695889,30.7210459 6.24216741,31.3546897 L5.50112632,32.3654173 L5.64491932,32.6082544 L6.91757685,32.4423853 C7.61565904,32.3522909 8.12639267,33.1673168 7.77377167,33.8230367 L7.20993605,34.8689667 L7.39907456,35.094501 L8.62578993,34.7550063 C9.13831352,34.6141966 9.96049921,35.2001083 9.69021611,35.9381661 L9.26182037,37.1070063 L9.47542159,37.3098678 L10.6740943,36.7812346 C11.2158539,36.5419774 11.9932907,37.1756212 11.8679939,37.7812224 L11.6096438,39.0377704 L11.8518843,39.2084127 L12.8608219,38.5717856 C13.5696438,38.124297 14.3357443,38.6809728 14.2862222,39.4196273 L14.2074642,40.6093503 L14.4699908,40.7352437 L15.3763044,39.9643701 C15.9610228,39.4667628 16.8434703,39.8432498 16.8971689,40.4828602 L17.0039695,41.7895268 L17.2849923,41.8814112 L18.0737656,40.9918039 C18.6071719,40.3903792 19.6125296,40.6481326 19.7903318,41.4321326 L20.0540517,42.5914264 L20.344621,42.6463183 L21.0677625,41.5532529 C21.4215768,41.0180565 22.3756225,41.1129241 22.6488888,41.8312924 L23.0725114,42.9434507 L23.3630806,42.9589637 L23.8666544,41.8778312 C24.1798964,41.207195 25.1178325,41.0872681 25.5247488,41.8205527 L26.1023074,42.8646927 L26.3958599,42.8318769 L26.7747336,41.6057582 C26.9573089,41.0150733 27.9423804,40.8342879 28.3033546,41.3038526 L29.0992876,42.3450093 L29.3832937,42.2698312 L29.5718355,41.039536 C29.6899725,40.2626958 30.6935403,40.1451555 31.0730106,40.5150793 L31.9870806,41.40409 L32.2603469,41.2960961 L32.2698934,40.1087597 C32.2758599,39.3635421 33.1171384,38.8951707 33.6845539,39.3110367 L34.7197442,40.0687841 L34.9637746,39.9243944 L34.7996955,38.6821661 C34.6976681,37.9029393 35.5860821,37.4823001 36.1427579,37.7806258 L37.224487,38.3599743 L37.4500212,38.1714325 L37.1254428,37.001399 C36.9106483,36.2263488 37.7322373,35.683396 38.229248,35.862988 L39.4625265,36.30809 L39.665388,36.0938921 L39.1391415,34.885673 C38.8772115,34.2860383 39.4237442,33.550367 40.2059542,33.7126562 L41.3843408,33.9572833 L41.5543865,33.7156395 L40.8646574,32.6040778 C40.5836346,32.1500261 40.8980699,31.2335695 41.7757442,31.2836882 L42.9577107,31.3505132 L43.0937472,31.0897765 L42.3228736,30.1846562 C41.8962678,29.6840657 42.0806331,28.7294234 42.960694,28.6554386 L44.146837,28.5569911 L44.239318,28.2753716 L43.2620029,27.4042605 C43.1987579,27.3475786 43.1522191,27.2789637 43.1158233,27.2055756 L46.2309405,27.2055756 C47.1366574,27.2055756 47.8776985,26.4639378 47.8776985,25.5582209 L47.8776985,19.1376547 C47.8776985,18.2313412 47.1366574,17.4903001 46.2309405,17.4903001 Z" id="Fill-19" fill="#000000" mask="url(#mask-2)"></path>
            </g>
            <path d="M22.040722,22.5524103 C22.040722,23.6335427 22.5854648,24.4939141 23.5168377,24.4939141 C24.4559671,24.4939141 24.9851969,23.6257862 24.9851969,22.5130313 C24.9851969,21.5100602 24.4875896,20.5631744 23.5168377,20.5631744 C22.5532456,20.5631744 22.040722,21.4551683 22.040722,22.5524103" id="Fill-22" fill="#000000"></path>
            <path d="M13.2552682,27.1776523 C13.0720962,27.1776523 12.9557491,27.190182 12.8996639,27.2033083 L12.8996639,28.1257314 L13.2415452,28.1257314 C13.6293686,28.1257314 13.8722057,27.9353996 13.8722057,27.645427 C13.8722057,27.3250252 13.6293686,27.1776523 13.2552682,27.1776523" id="Fill-24" fill="#000000"></path>
            <path d="M36.8870806,27.1776523 C36.7045052,27.1776523 36.5875616,27.190182 36.5314763,27.2033083 L36.5314763,28.1257314 L36.8733576,28.1257314 C37.261181,28.1257314 37.5046148,27.9353996 37.5046148,27.645427 C37.5046148,27.3250252 37.261181,27.1776523 36.8870806,27.1776523" id="Fill-26" fill="#FEFEFE"></path>
        </g>
    </g>
</svg>