<?xml version="1.0" encoding="UTF-8"?>
<svg width="50px" height="50px" viewBox="0 0 50 50" version="1.1" xmlns="http://www.w3.org/2000/svg" xmlns:xlink="http://www.w3.org/1999/xlink">
    <!-- Generator: Sketch 52.6 (67491) - http://www.bohemiancoding.com/sketch -->
    <title>rtb-2</title>
    <desc>Created with Sketch.</desc>
    <defs>
        <polygon id="path-1" points="0.000135744199 0.477428571 19.3685714 0.477428571 19.3685714 12.8571429 0.000135744199 12.8571429"></polygon>
        <polygon id="path-3" points="0 13.0941429 19.3685714 13.0941429 19.3685714 0.714142857 0 0.714142857"></polygon>
        <polygon id="path-5" points="0 0.20254175 7.48747031 0.20254175 7.48747031 18.1817471 0 18.1817471"></polygon>
        <polygon id="path-7" points="0.000154545455 -2.13741261e-05 16.2945 -2.13741261e-05 16.2945 10.5066182 0.000154545455 10.5066182"></polygon>
        <polygon id="path-9" points="0.000139577616 0.535313266 14.6186842 0.535313266 14.6186842 15.7894737 0.000139577616 15.7894737"></polygon>
    </defs>
    <g id="rtb-2" stroke="none" stroke-width="1" fill="none" fill-rule="evenodd">
        <g id="Group-5" transform="translate(2.000000, 2.000000)" stroke="#000000" stroke-width="1.5">
            <path d="M45.9606294,0.3588 L0.358394118,45.9610353" id="Stroke-1"></path>
            <path d="M45.9606294,45.9607647 L0.358394118,0.358529412" id="Stroke-3"></path>
        </g>
        <g id="Group-12" transform="translate(15.000000, 1.000000)">
            <g id="Group-3" transform="translate(0.000000, 0.237000)">
                <mask id="mask-2" fill="white">
                    <use xlink:href="#path-1"></use>
                </mask>
                <g id="Clip-2"></g>
                <path d="M3.85064286,5.60957143 C4.19207143,5.61028571 4.53064286,5.66528571 4.85421429,5.77314286 L3.25064286,8.66171429 C3.16421429,8.81671429 3.21992857,9.01171429 3.37492857,9.09814286 C3.42207143,9.12385714 3.47564286,9.13814286 3.52992857,9.13814286 L7.04207143,9.13814286 C6.86492857,10.901 5.29207143,12.1867143 3.52921429,12.0088571 C1.76707143,11.8317143 0.481357143,10.2595714 0.6585,8.49671429 C0.8235,6.85742857 2.20278571,5.60957143 3.85064286,5.60957143 Z M5.44207143,6.036 C6.34064286,6.55028571 6.93707143,7.46671429 7.04207143,8.49671429 L4.07492857,8.49671429 L5.44207143,6.036 Z M6.7185,3.73814286 L8.81207143,8.49671429 L7.6835,8.49671429 C7.57707143,7.23314286 6.85492857,6.10314286 5.7535,5.476 L6.7185,3.73814286 Z M15.1042143,8.946 L15.6927857,8.68957143 L14.4206429,5.76314286 C16.1135,5.21671429 17.9285,6.14671429 18.4749286,7.84028571 C19.0213571,9.53314286 18.0913571,11.3481429 16.3985,11.8945714 C14.7049286,12.4402857 12.8899286,11.511 12.3435,9.81742857 C11.8727857,8.35885714 12.4963571,6.77028571 13.8327857,6.01957143 L15.1042143,8.946 Z M3.85064286,12.6667143 C5.85064286,12.6638571 7.51492857,11.131 7.6835,9.13814286 L9.3035,9.13814286 C9.41207143,9.13814286 9.5135,9.08314286 9.57207143,8.99242857 C9.57421429,8.99028571 9.57492857,8.98671429 9.57635714,8.98457143 L12.8170714,3.68528571 L13.5756429,5.42957143 C11.6513571,6.451 10.9199286,8.83814286 11.9413571,10.7617143 C12.9620714,12.6852857 15.3499286,13.4174286 17.2735,12.396 C19.1970714,11.3745714 19.9292143,8.98742857 18.9077857,7.06385714 C18.0020714,5.35742857 15.9942143,4.55885714 14.1642143,5.176 L12.6799286,1.76028571 L15.2377857,1.76028571 C15.5035,1.76028571 15.7192143,1.976 15.7192143,2.24171429 C15.7192143,2.50742857 15.5035,2.72242857 15.2377857,2.72242857 L14.1156429,2.72242857 L14.1156429,3.36385714 L15.2377857,3.36385714 C15.8585,3.36385714 16.3613571,2.86171429 16.3613571,2.24171429 C16.3613571,1.62171429 15.8585,1.11885714 15.2377857,1.11885714 L12.1906429,1.11885714 C12.0135,1.11885714 11.8699286,1.26242857 11.8699286,1.43957143 C11.8699286,1.48385714 11.8792143,1.52742857 11.8970714,1.56814286 L12.3992143,2.72242857 L9.94564286,2.72242857 L9.94564286,3.36385714 L12.2606429,3.36385714 L9.35064286,8.126 L7.25492857,3.36385714 L8.02064286,3.36385714 L8.02064286,2.72242857 L6.97278571,2.72242857 L6.26635714,1.11885714 L7.37921429,1.11885714 L7.37921429,0.477428571 L4.81278571,0.477428571 L4.81278571,1.11885714 L5.56564286,1.11885714 L6.39421429,3.001 L5.16921429,5.206 C3.1735,4.47671429 0.964214286,5.50314286 0.234928571,7.49885714 C-0.494357143,9.49385714 0.532071429,11.7038571 2.52707143,12.4331429 C2.95135714,12.5881429 3.39921429,12.6667143 3.85064286,12.6667143 Z" id="Fill-1" fill="#000000" mask="url(#mask-2)"></path>
            </g>
            <path d="M17.9647857,9.05457143 C17.9633571,8.22242857 17.5597857,7.44242857 16.8812143,6.961 L16.5097857,7.48242857 C17.0190714,7.84385714 17.3226429,8.42957143 17.3233571,9.05457143 C17.3219286,10.1167143 16.4612143,10.9774286 15.3983571,10.9788571 L15.3983571,11.621 C16.8155,11.6188571 17.9633571,10.471 17.9647857,9.05457143" id="Fill-4" fill="#000000"></path>
            <path d="M16.3255714,6.66164286 C16.0298571,6.54664286 15.7155714,6.48807143 15.3984286,6.48807143 L15.3984286,7.1295 C15.6362857,7.12878571 15.8712857,7.17235714 16.0934286,7.25807143 L16.3255714,6.66164286 Z" id="Fill-6" fill="#000000"></path>
            <path d="M3.86007143,11.6208571 C4.00435714,11.6208571 4.14792857,11.608 4.29007143,11.5844286 L4.18292857,10.9515714 C3.56721429,11.0551429 2.93935714,10.8565714 2.49721429,10.4165714 C1.74721429,9.66442857 1.74721429,8.44728571 2.49721429,7.69442857 L2.04364286,7.24157143 C1.04221429,8.24371429 1.04364286,9.86871429 2.04578571,10.8701429 C2.52721429,11.3508571 3.18007143,11.6208571 3.86007143,11.6208571" id="Fill-8" fill="#000000"></path>
            <mask id="mask-4" fill="white">
                <use xlink:href="#path-3"></use>
            </mask>
            <g id="Clip-11"></g>
            <polygon id="Fill-10" fill="#000000" mask="url(#mask-4)" points="8.66214286 3.60128571 9.30357143 3.60128571 9.30357143 2.95985714 8.66214286 2.95985714"></polygon>
        </g>
        <g id="Group-8" transform="translate(2.000000, 16.000000)">
            <g id="Group-3" transform="translate(0.000000, 0.525018)">
                <mask id="mask-6" fill="white">
                    <use xlink:href="#path-5"></use>
                </mask>
                <g id="Clip-2"></g>
                <path d="M6.3288,10.1154909 L1.21970909,9.98530909 L1.23498182,9.38894545 L6.34407273,9.51985455 L6.3288,10.1154909 Z M0.518618182,17.4224 L0.533890909,16.8267636 L4.10989091,16.9176727 L4.12516364,16.3220364 L0.549163636,16.2304 L0.663345455,11.7598545 L6.79425455,11.9169455 L6.67934545,16.3874909 L5.65825455,16.3605818 L5.64298182,16.9569455 L6.6648,16.9831273 L6.64952727,17.5794909 L0.518618182,17.4224 Z M0.949163636,10.5744 L6.56952727,10.7184 L6.8248,10.7242182 L6.80952727,11.3205818 L0.678618182,11.1642182 L0.693890909,10.5678545 L0.949163636,10.5744 Z M1.13170909,3.42167273 C1.13607273,3.25803636 1.25389091,3.12712727 1.39498182,3.13076364 L3.18334545,3.17585455 L4.71570909,3.21512727 L6.50407273,3.26094545 C6.64516364,3.26458182 6.75570909,3.40130909 6.75207273,3.56567273 L6.7288,4.45949091 L1.10916364,4.31621818 L1.13170909,3.42167273 Z M3.46916364,1.9904 L4.49098182,2.01658182 L4.47570909,2.61294545 L3.45389091,2.58676364 L3.46916364,1.9904 Z M3.23643636,1.09003636 C3.2408,0.925672727 3.35861818,0.794763636 3.49970909,0.7984 L4.52152727,0.824581818 C4.66189091,0.828218182 4.77316364,0.964945455 4.7688,1.12930909 L4.76152727,1.42749091 L3.22843636,1.38821818 L3.23643636,1.09003636 Z M6.86989091,8.93658182 L6.61461818,8.93003636 L0.994981818,8.78603636 L0.738981818,8.78021818 L0.838618182,4.90530909 L6.9688,5.0624 L6.86989091,8.93658182 Z M7.11061818,9.53949091 C7.25170909,9.5424 7.36952727,9.41221818 7.37389091,9.24785455 L7.48734545,4.77730909 C7.49170909,4.61294545 7.38116364,4.47621818 7.23934545,4.47258182 L7.26261818,3.57876364 C7.27498182,3.08567273 6.94189091,2.67621818 6.51934545,2.66458182 L4.98625455,2.62603636 L5.00152727,2.02967273 C5.14261818,2.03330909 5.26043636,1.90312727 5.2648,1.73803636 L5.28007273,1.1424 C5.29243636,0.649309091 4.95934545,0.239127273 4.5368,0.228945455 L3.51498182,0.202763636 C3.09243636,0.191854545 2.73825455,0.584581818 2.72516364,1.07694545 L2.70989091,1.67330909 C2.70625455,1.83767273 2.8168,1.9744 2.95789091,1.97803636 L2.94261818,2.57367273 L1.41025455,2.5344 C0.987709091,2.52349091 0.633527273,2.91621818 0.621163636,3.40858182 L0.597890909,4.30312727 C0.457527273,4.29949091 0.339709091,4.4304 0.335345455,4.59476364 L0.221163636,9.06530909 C0.2168,9.22967273 0.328072727,9.36567273 0.468436364,9.36930909 L0.723709091,9.37585455 L0.709163636,9.97221818 L0.453163636,9.96567273 C0.3128,9.96203636 0.194254545,10.0922182 0.190618182,10.2565818 L0.160072727,11.4485818 L0.0306181818,16.5154909 L7.27272727e-05,17.7074909 C-0.00429090909,17.8718545 0.106981818,18.0085818 0.248072727,18.0122182 L6.88952727,18.1816727 C7.03061818,18.1853091 7.14843636,18.0551273 7.1528,17.8900364 L7.18334545,16.6980364 L7.3128,11.6318545 L7.34334545,10.4398545 C7.34698182,10.2754909 7.23643636,10.1387636 7.09534545,10.1351273 L6.84007273,10.1285818 L6.85534545,9.53221818 L7.11061818,9.53949091 Z" id="Fill-1" fill="#000000" mask="url(#mask-6)"></path>
            </g>
            <polygon id="Fill-4" fill="#000000" points="4.63636364 16.8599273 5.14690909 16.8730182 5.13163636 17.4686545 4.62109091 17.4555636"></polygon>
            <path d="M3.87323636,6.70087273 C4.15541818,6.70814545 4.37723636,6.9816 4.36923636,7.31032727 C4.36050909,7.63905455 4.12487273,7.90014545 3.84269091,7.89287273 C3.56123636,7.8856 3.33869091,7.61287273 3.34741818,7.28414545 C3.35541818,6.95541818 3.59178182,6.6936 3.87323636,6.70087273 M3.82814545,8.48923636 C4.39105455,8.50378182 4.86305455,7.98087273 4.87978182,7.32269091 C4.89650909,6.66596364 4.45214545,6.11905455 3.88850909,6.10523636 C3.32487273,6.09069091 2.85287273,6.6136 2.83614545,7.27105455 C2.81941818,7.92850909 3.26450909,8.47469091 3.82814545,8.48923636" id="Fill-6" fill="#000000"></path>
        </g>
        <g id="Group-3" transform="translate(32.000000, 21.000000)">
            <mask id="mask-8" fill="white">
                <use xlink:href="#path-7"></use>
            </mask>
            <g id="Clip-2"></g>
            <path d="M8.49397273,6.76700455 C8.28765455,6.64182273 8.22197273,6.37368636 8.34792727,6.16814091 C8.47233636,5.96182273 8.74047273,5.89691364 8.94601818,6.02132273 L11.7548818,7.72750455 C11.9604273,7.85191364 12.0261091,8.12005 11.9009273,8.32636818 C11.7765182,8.53191364 11.5076091,8.59759545 11.3020636,8.47241364 L8.49397273,6.76700455 Z M3.24251818,6.31495909 C2.95506364,6.13877727 2.69851818,6.01205 2.47288182,5.93400455 C2.2457,5.85518636 2.12515455,5.60714091 2.20397273,5.37995909 C2.28279091,5.15200455 2.53160909,5.03145909 2.75879091,5.11027727 C3.04856364,5.21073182 3.36074545,5.36450455 3.69842727,5.57236818 C4.03224545,5.77636818 4.3367,6.00045909 4.61333636,6.24386818 C4.85906364,6.46023182 4.7872,6.86127727 4.4812,6.97795909 L3.50756364,7.35118636 C3.2827,7.43773182 3.03079091,7.32491364 2.94424545,7.10005 C2.85847273,6.87518636 2.97051818,6.62327727 3.19538182,6.53673182 L3.44110909,6.44245909 C3.3762,6.39918636 3.31051818,6.35668636 3.24251818,6.31495909 Z M5.37601818,4.98432273 C5.03060909,4.85141364 4.5492,4.68373182 3.93410909,4.48359545 C3.70538182,4.40864091 3.5802,4.16214091 3.65515455,3.93341364 C3.72933636,3.70468636 3.97583636,3.57950455 4.20456364,3.65445909 C4.83279091,3.85923182 5.32733636,4.03155 5.68974545,4.17141364 C6.05833636,4.31359545 6.55133636,4.53691364 7.17260909,4.84368636 C7.52342727,5.01677727 7.48633636,5.52832273 7.11465455,5.64886818 L6.33265455,5.90386818 C6.10392727,5.97805 5.85742727,5.85286818 5.78324545,5.62414091 C5.73301818,5.46959545 5.7732,5.30655 5.87597273,5.19450455 C5.68588182,5.11027727 5.51897273,5.03995909 5.37601818,4.98432273 Z M11.0895636,5.00982273 C10.8909727,4.87382273 10.8407455,4.60259545 10.9767455,4.40323182 C11.1127455,4.20541364 11.3839727,4.15441364 11.5825636,4.29041364 C12.3143364,4.79191364 12.9332909,5.28955 13.4371091,5.78332273 C13.9455636,6.28018636 14.3968364,6.83114091 14.7917,7.43541364 C14.9238364,7.63709545 14.8674273,7.90755 14.6649727,8.03891364 C14.4640636,8.17105 14.1936091,8.11464091 14.0622455,7.91218636 C13.7013818,7.36045909 13.2902909,6.85895909 12.8274273,6.40614091 C12.3614727,5.95023182 11.7819273,5.48427727 11.0895636,5.00982273 Z M5.44710909,2.75423182 C5.20988182,2.71173182 5.05147273,2.48609545 5.0932,2.24886818 C5.1357,2.01164091 5.36210909,1.85323182 5.59856364,1.89573182 C6.3512,2.02864091 7.09765455,2.21950455 7.83715455,2.46832273 C8.57974545,2.71714091 9.23656364,2.99841364 9.80838182,3.31059545 C10.0193364,3.42650455 10.0973818,3.69155 9.98147273,3.90250455 C9.86556364,4.11423182 9.60129091,4.19150455 9.38956364,4.07636818 C8.86565455,3.78891364 8.2552,3.52850455 7.55974545,3.29436818 C6.86042727,3.06023182 6.15647273,2.88018636 5.44710909,2.75423182 Z M0.879518182,3.75105 C0.612927273,3.40100455 0.498563636,2.99609545 0.688654545,2.54250455 C0.801472727,2.27282273 0.986927273,2.10282273 1.23651818,1.94982273 C1.45983636,1.81305 1.7357,1.69482273 2.12206364,1.55727727 C2.10892727,1.52945909 2.09733636,1.50086818 2.08574545,1.47073182 C1.86706364,0.891959091 2.18388182,0.395095455 2.67997273,0.177186364 C3.06556364,0.00718636364 4.92474545,-0.0584954545 6.58533636,0.0605045455 C9.03179091,0.236686364 11.1722455,0.763686364 12.7308364,1.76050455 C14.3234273,2.77818636 15.3975182,4.29659545 15.9361091,6.02673182 C16.3796545,7.44855 16.4136545,8.93064091 16.0272909,9.75514091 C15.7143364,10.4227773 14.9933818,10.4923227 12.8405636,10.5062318 C11.3801091,10.5155045 10.0626091,10.4204591 9.42201818,10.2149136 C8.89501818,10.0472318 8.55733636,9.83164091 7.98860909,9.37882273 L7.92756364,9.33014091 C7.37197273,8.88736818 7.10615455,8.74286818 6.62629091,8.67950455 C6.37206364,8.64550455 6.03129091,8.68955 5.58310909,8.81241364 C5.37833636,8.86882273 5.1697,8.93605 4.8637,9.03959545 C3.98665455,9.33864091 3.93488182,9.35564091 3.6142,9.42673182 C3.03542727,9.55655 2.56406364,9.54573182 2.13829091,9.27991364 C1.24888182,8.72586818 0.000154545455,6.02364091 0.000154545455,5.16205 C0.000154545455,4.62191364 0.262881818,4.33600455 0.735018182,4.02459545 C0.774427273,3.99832273 0.814609091,3.97359545 0.866381818,3.94114091 C0.873336364,3.93650455 0.948290909,3.89014091 0.977654545,3.87159545 C0.935154545,3.82368636 0.918927273,3.80282273 0.879518182,3.75105 Z M3.03156364,0.974640909 C2.44815455,1.23118636 3.9117,1.69945909 3.75406364,1.88259545 C3.59642727,2.06573182 1.65379091,2.49614091 1.49229091,2.87941364 C1.33156364,3.26345909 2.15065455,3.53855 2.00615455,4.04623182 C1.86242727,4.55468636 0.871790909,4.76255 0.871790909,5.16205 C0.871790909,5.56232273 1.8717,8.08682273 2.59960909,8.53964091 C3.32829091,8.99400455 5.30029091,7.62318636 6.74065455,7.81482273 C8.18179091,8.00645909 8.55115455,9.02182273 9.68706364,9.38500455 C10.8237455,9.74741364 15.0961545,9.68636818 15.2375636,9.38500455 C15.7375182,8.31786818 15.3727909,4.48436818 12.2610182,2.49459545 C9.05265455,0.443004545 3.24483636,0.881140909 3.03156364,0.974640909 Z" id="Fill-1" fill="#000000" mask="url(#mask-8)"></path>
        </g>
        <g id="Group-8" transform="translate(18.000000, 32.000000)">
            <g id="Group-3" transform="translate(0.000000, 0.254368)">
                <mask id="mask-10" fill="white">
                    <use xlink:href="#path-9"></use>
                </mask>
                <g id="Clip-2"></g>
                <path d="M13.0300263,7.07194737 L11.9705526,12.6377368 L11.0855526,11.1645789 C11.0579211,11.1195789 11.0176579,11.0848421 10.9695,11.0643158 L4.68765789,8.47721053 L3.71897368,6.77589474 L3.55239474,3.17036842 L5.55371053,3.37642105 C5.55765789,3.37721053 5.56160526,3.37484211 5.56476316,3.37563158 L5.81423684,5.66431579 L5.81897368,5.66431579 C5.83160526,5.77563158 5.91607895,5.86878947 6.03213158,5.88063158 C6.16634211,5.89484211 6.28634211,5.79694737 6.30055263,5.66273684 L6.67555263,2.01931579 L8.61923684,2.21905263 L8.60502632,2.35405263 L8.24344737,5.86326316 C8.22923684,5.99747368 8.32713158,6.11747368 8.46134211,6.13168421 C8.59555263,6.14510526 8.71555263,6.04721053 8.72976316,5.913 L9.05502632,2.75510526 L10.9979211,2.95563158 L10.6726579,6.11352632 C10.6592368,6.24773684 10.7571316,6.36773684 10.8905526,6.38115789 C11.0042368,6.393 11.1037105,6.32273684 11.1408158,6.22010526 L11.1455526,6.22168421 L11.7660789,4.50773684 L13.7587105,4.713 L13.0363421,7.04510526 C13.0339737,7.05457895 13.0316053,7.06247368 13.0300263,7.07194737 Z M5.45739474,2.38484211 L5.51107895,2.88063158 L3.5295,2.67694737 L3.50660526,2.18352632 L5.45739474,2.38484211 Z M8.7195,1.248 L8.69423684,1.49036842 L8.66897368,1.73352632 L6.72528947,1.533 L6.77581579,1.04747368 L8.7195,1.248 Z M11.0981842,1.98378947 L11.0484474,2.46931579 L9.10476316,2.26957895 L9.1545,1.78326316 L11.0981842,1.98378947 Z M14.0523947,3.76089474 L13.9055526,4.23694737 L11.9381842,4.03405263 L12.1095,3.56115789 L14.0523947,3.76089474 Z M0.985815789,7.66642105 L0.6045,7.27010526 L2.11871053,6.03931579 L2.54976316,6.39536842 L0.985815789,7.66642105 Z M14.5773947,3.41431579 C14.5379211,3.35273684 14.4723947,3.31326316 14.3989737,3.30536842 L11.9697632,3.05589474 C11.8584474,3.04405263 11.7534474,3.10957895 11.7155526,3.21536842 L11.3618684,4.19036842 L11.6089737,1.79115789 C11.6231842,1.65694737 11.5252895,1.53694737 11.3910789,1.52273684 L9.20502632,1.29773684 L9.23028947,1.05457895 C9.24371053,0.920368421 9.14660526,0.800368421 9.01239474,0.786947368 L6.58239474,0.536684211 C6.44897368,0.522473684 6.32818421,0.620368421 6.31476316,0.754578947 L6.05028947,3.31957895 L5.92160526,2.13536842 C5.90897368,2.02089474 5.81818421,1.93089474 5.70371053,1.91905263 L3.2745,1.66878947 C3.20344737,1.66089474 3.13318421,1.68536842 3.08107895,1.73431579 C3.02976316,1.78247368 3.00213158,1.85194737 3.00528947,1.923 L3.20818421,6.30615789 L2.27502632,5.53484211 C2.18581579,5.46063158 2.05634211,5.46063158 1.96555263,5.53405263 L0.0897631579,7.05931579 C0.0368684211,7.10273684 0.0045,7.16589474 0.000552631579,7.23378947 C-0.00339473684,7.30247368 0.0210789474,7.36878947 0.0684473684,7.41773684 L2.88844737,10.3514211 L3.16160526,14.7093158 C3.1695,14.8285263 3.26186842,14.9248421 3.38028947,14.9374737 L7.26765789,15.3377368 L7.31739474,14.8514211 L3.63686842,14.4724737 L3.37081579,10.2306316 C3.36686842,10.1737895 3.34318421,10.1185263 3.30292105,10.0774737 L1.32528947,8.02010526 L2.92871053,6.71668421 L2.90581579,6.68905263 L3.28792105,7.00484211 L4.30476316,8.79142105 C4.33160526,8.83878947 4.37344737,8.87589474 4.42397368,8.89721053 L10.7089737,11.4851053 L11.8331842,13.3577368 L11.4676579,15.2793158 L8.77476316,15.0022105 L8.72502632,15.4877368 L11.6405526,15.7885263 C11.7660789,15.8011579 11.8813421,15.7158947 11.9050263,15.5911579 L13.5076579,7.17694737 L14.6081842,3.62036842 C14.6295,3.55089474 14.6184474,3.47510526 14.5773947,3.41431579 Z" id="Fill-1" fill="#000000" mask="url(#mask-10)"></path>
            </g>
            <polygon id="Fill-4" fill="#FEFEFE" points="7.80323684 15.1563158 8.28955263 15.2060526 8.23902632 15.6923684 7.7535 15.6418421"></polygon>
            <path d="M10.0899474,14.4096316 L8.87494737,14.2848947 L9.00047368,13.0698947 L10.2154737,13.1946316 L10.0899474,14.4096316 Z M4.87073684,12.6443684 L8.51415789,13.0201579 L8.38942105,14.2343684 L4.74521053,13.8593684 L4.87073684,12.6443684 Z M10.5502105,14.7025263 L10.7262632,13.002 C10.7396842,12.8677895 10.6425789,12.7485789 10.5083684,12.7343684 L4.67810526,12.1335789 C4.54389474,12.1201579 4.42310526,12.2172632 4.40968421,12.3514737 L4.23442105,14.052 C4.22021053,14.1862105 4.31810526,14.3062105 4.45231579,14.3196316 L10.2825789,14.9204211 C10.4167895,14.9346316 10.5367895,14.8367368 10.5502105,14.7025263 Z" id="Fill-6" fill="#000000"></path>
        </g>
    </g>
</svg>